<mxfile host="app.diagrams.net" agent="Mozilla/5.0 (Windows NT 10.0; Win64; x64) AppleWebKit/537.36 (KHTML, like Gecko) Chrome/127.0.0.0 Safari/537.36" version="24.7.7">
  <diagram name="Page-1" id="iod_crvK3_vbFKi02w_N">
    <mxGraphModel dx="954" dy="592" grid="1" gridSize="10" guides="1" tooltips="1" connect="1" arrows="1" fold="1" page="1" pageScale="1" pageWidth="827" pageHeight="1169" math="0" shadow="0">
      <root>
        <mxCell id="0" />
        <mxCell id="1" parent="0" />
        <mxCell id="aYal6dCSXNKZ7LH5C-j5-13" value="" style="edgeStyle=orthogonalEdgeStyle;rounded=0;orthogonalLoop=1;jettySize=auto;html=1;" edge="1" parent="1" source="aYal6dCSXNKZ7LH5C-j5-1" target="aYal6dCSXNKZ7LH5C-j5-12">
          <mxGeometry relative="1" as="geometry" />
        </mxCell>
        <mxCell id="aYal6dCSXNKZ7LH5C-j5-1" value="Create Howler&lt;div&gt;howl.&lt;/div&gt;&lt;div&gt;callbacks,&lt;/div&gt;&lt;div&gt;options&lt;/div&gt;" style="rounded=1;whiteSpace=wrap;html=1;fillColor=#d5e8d4;strokeColor=#82b366;" vertex="1" parent="1">
          <mxGeometry x="170" y="160" width="120" height="60" as="geometry" />
        </mxCell>
        <mxCell id="aYal6dCSXNKZ7LH5C-j5-4" style="edgeStyle=orthogonalEdgeStyle;rounded=0;orthogonalLoop=1;jettySize=auto;html=1;" edge="1" parent="1" source="aYal6dCSXNKZ7LH5C-j5-2" target="aYal6dCSXNKZ7LH5C-j5-1">
          <mxGeometry relative="1" as="geometry" />
        </mxCell>
        <mxCell id="aYal6dCSXNKZ7LH5C-j5-2" value="Howler for a particular source&lt;div&gt;(src)&lt;/div&gt;&lt;div&gt;(input)&lt;/div&gt;" style="rounded=1;whiteSpace=wrap;html=1;" vertex="1" parent="1">
          <mxGeometry x="20" y="250" width="120" height="60" as="geometry" />
        </mxCell>
        <mxCell id="aYal6dCSXNKZ7LH5C-j5-5" style="edgeStyle=orthogonalEdgeStyle;rounded=0;orthogonalLoop=1;jettySize=auto;html=1;entryX=1;entryY=0.5;entryDx=0;entryDy=0;" edge="1" parent="1" source="aYal6dCSXNKZ7LH5C-j5-3" target="aYal6dCSXNKZ7LH5C-j5-1">
          <mxGeometry relative="1" as="geometry" />
        </mxCell>
        <mxCell id="aYal6dCSXNKZ7LH5C-j5-3" value="Howler Other options&lt;div&gt;(input)&lt;/div&gt;" style="rounded=1;whiteSpace=wrap;html=1;" vertex="1" parent="1">
          <mxGeometry x="180" y="250" width="120" height="60" as="geometry" />
        </mxCell>
        <mxCell id="aYal6dCSXNKZ7LH5C-j5-6" value="Howler options&lt;div&gt;(local from args)&lt;/div&gt;" style="rounded=1;whiteSpace=wrap;html=1;" vertex="1" parent="1">
          <mxGeometry x="170" y="380" width="120" height="60" as="geometry" />
        </mxCell>
        <mxCell id="aYal6dCSXNKZ7LH5C-j5-7" style="edgeStyle=orthogonalEdgeStyle;rounded=0;orthogonalLoop=1;jettySize=auto;html=1;entryX=0.417;entryY=0.95;entryDx=0;entryDy=0;entryPerimeter=0;" edge="1" parent="1" source="aYal6dCSXNKZ7LH5C-j5-6" target="aYal6dCSXNKZ7LH5C-j5-3">
          <mxGeometry relative="1" as="geometry" />
        </mxCell>
        <mxCell id="aYal6dCSXNKZ7LH5C-j5-9" style="edgeStyle=orthogonalEdgeStyle;rounded=0;orthogonalLoop=1;jettySize=auto;html=1;entryX=1;entryY=0.5;entryDx=0;entryDy=0;" edge="1" parent="1" source="aYal6dCSXNKZ7LH5C-j5-8" target="aYal6dCSXNKZ7LH5C-j5-3">
          <mxGeometry relative="1" as="geometry" />
        </mxCell>
        <mxCell id="aYal6dCSXNKZ7LH5C-j5-8" value="new howler&amp;nbsp;&lt;div&gt;(creation)&lt;/div&gt;" style="rounded=1;whiteSpace=wrap;html=1;" vertex="1" parent="1">
          <mxGeometry x="360" y="250" width="120" height="60" as="geometry" />
        </mxCell>
        <mxCell id="aYal6dCSXNKZ7LH5C-j5-11" style="edgeStyle=orthogonalEdgeStyle;rounded=0;orthogonalLoop=1;jettySize=auto;html=1;" edge="1" parent="1" source="aYal6dCSXNKZ7LH5C-j5-10" target="aYal6dCSXNKZ7LH5C-j5-3">
          <mxGeometry relative="1" as="geometry" />
        </mxCell>
        <mxCell id="aYal6dCSXNKZ7LH5C-j5-10" value="this.howl property set&lt;div&gt;to new ly created howler&lt;/div&gt;" style="rounded=0;whiteSpace=wrap;html=1;" vertex="1" parent="1">
          <mxGeometry x="340" y="360" width="120" height="60" as="geometry" />
        </mxCell>
        <mxCell id="aYal6dCSXNKZ7LH5C-j5-12" value="Returns instance of the new howl" style="whiteSpace=wrap;html=1;rounded=1;" vertex="1" parent="1">
          <mxGeometry x="170" y="20" width="120" height="60" as="geometry" />
        </mxCell>
        <mxCell id="aYal6dCSXNKZ7LH5C-j5-16" value="" style="edgeStyle=orthogonalEdgeStyle;rounded=0;orthogonalLoop=1;jettySize=auto;html=1;" edge="1" parent="1" source="aYal6dCSXNKZ7LH5C-j5-14" target="aYal6dCSXNKZ7LH5C-j5-15">
          <mxGeometry relative="1" as="geometry" />
        </mxCell>
        <mxCell id="aYal6dCSXNKZ7LH5C-j5-14" value="subscribe(subscription)" style="rounded=0;whiteSpace=wrap;html=1;" vertex="1" parent="1">
          <mxGeometry x="450" y="100" width="120" height="60" as="geometry" />
        </mxCell>
        <mxCell id="aYal6dCSXNKZ7LH5C-j5-15" value="set Id (string,&amp;nbsp; increase no of connections)" style="whiteSpace=wrap;html=1;rounded=0;" vertex="1" parent="1">
          <mxGeometry x="600" y="100" width="120" height="60" as="geometry" />
        </mxCell>
        <mxCell id="aYal6dCSXNKZ7LH5C-j5-19" value="" style="edgeStyle=orthogonalEdgeStyle;rounded=0;orthogonalLoop=1;jettySize=auto;html=1;" edge="1" parent="1" source="aYal6dCSXNKZ7LH5C-j5-17" target="aYal6dCSXNKZ7LH5C-j5-18">
          <mxGeometry relative="1" as="geometry" />
        </mxCell>
        <mxCell id="aYal6dCSXNKZ7LH5C-j5-21" value="" style="edgeStyle=orthogonalEdgeStyle;rounded=0;orthogonalLoop=1;jettySize=auto;html=1;" edge="1" parent="1" source="aYal6dCSXNKZ7LH5C-j5-17" target="aYal6dCSXNKZ7LH5C-j5-20">
          <mxGeometry relative="1" as="geometry" />
        </mxCell>
        <mxCell id="aYal6dCSXNKZ7LH5C-j5-23" value="" style="edgeStyle=orthogonalEdgeStyle;rounded=0;orthogonalLoop=1;jettySize=auto;html=1;" edge="1" parent="1" source="aYal6dCSXNKZ7LH5C-j5-17" target="aYal6dCSXNKZ7LH5C-j5-22">
          <mxGeometry relative="1" as="geometry" />
        </mxCell>
        <mxCell id="aYal6dCSXNKZ7LH5C-j5-26" value="" style="edgeStyle=orthogonalEdgeStyle;rounded=0;orthogonalLoop=1;jettySize=auto;html=1;" edge="1" parent="1" source="aYal6dCSXNKZ7LH5C-j5-17" target="aYal6dCSXNKZ7LH5C-j5-25">
          <mxGeometry relative="1" as="geometry" />
        </mxCell>
        <mxCell id="aYal6dCSXNKZ7LH5C-j5-17" value="How&lt;div&gt;lInstance&lt;/div&gt;&lt;div&gt;Manager&lt;/div&gt;" style="whiteSpace=wrap;html=1;aspect=fixed;" vertex="1" parent="1">
          <mxGeometry x="320" y="570" width="80" height="80" as="geometry" />
        </mxCell>
        <mxCell id="aYal6dCSXNKZ7LH5C-j5-18" value="subscription Count" style="whiteSpace=wrap;html=1;" vertex="1" parent="1">
          <mxGeometry x="459" y="580" width="120" height="60" as="geometry" />
        </mxCell>
        <mxCell id="aYal6dCSXNKZ7LH5C-j5-20" value="Callbacks&lt;div&gt;(map of string and audio action callbacks)&lt;/div&gt;" style="whiteSpace=wrap;html=1;" vertex="1" parent="1">
          <mxGeometry x="140" y="580" width="120" height="60" as="geometry" />
        </mxCell>
        <mxCell id="aYal6dCSXNKZ7LH5C-j5-22" value="getter and setter for no of active susbscriptions&lt;div&gt;(and helper function (subscribe/unsubscribe))&lt;/div&gt;" style="whiteSpace=wrap;html=1;" vertex="1" parent="1">
          <mxGeometry x="200" y="680" width="120" height="59" as="geometry" />
        </mxCell>
        <mxCell id="aYal6dCSXNKZ7LH5C-j5-24" value="Subscribe&lt;div&gt;-&amp;gt; adding a callback to id(put val on map)&lt;/div&gt;" style="rounded=0;whiteSpace=wrap;html=1;" vertex="1" parent="1">
          <mxGeometry x="570" y="700" width="120" height="60" as="geometry" />
        </mxCell>
        <mxCell id="aYal6dCSXNKZ7LH5C-j5-29" value="" style="edgeStyle=orthogonalEdgeStyle;rounded=0;orthogonalLoop=1;jettySize=auto;html=1;" edge="1" parent="1" source="aYal6dCSXNKZ7LH5C-j5-25" target="aYal6dCSXNKZ7LH5C-j5-28">
          <mxGeometry relative="1" as="geometry" />
        </mxCell>
        <mxCell id="aYal6dCSXNKZ7LH5C-j5-25" value="BroadCast an Action&lt;div&gt;&lt;br&gt;&lt;/div&gt;" style="whiteSpace=wrap;html=1;" vertex="1" parent="1">
          <mxGeometry x="300" y="470" width="120" height="60" as="geometry" />
        </mxCell>
        <mxCell id="aYal6dCSXNKZ7LH5C-j5-28" value="Broadcasting an action includes&lt;div&gt;broadcasting for all callbacks&lt;/div&gt;" style="whiteSpace=wrap;html=1;" vertex="1" parent="1">
          <mxGeometry x="500" y="470" width="120" height="60" as="geometry" />
        </mxCell>
        <mxCell id="aYal6dCSXNKZ7LH5C-j5-32" value="" style="edgeStyle=orthogonalEdgeStyle;rounded=0;orthogonalLoop=1;jettySize=auto;html=1;" edge="1" parent="1" source="aYal6dCSXNKZ7LH5C-j5-30" target="aYal6dCSXNKZ7LH5C-j5-31">
          <mxGeometry relative="1" as="geometry" />
        </mxCell>
        <mxCell id="aYal6dCSXNKZ7LH5C-j5-30" value="Action Types" style="rounded=1;whiteSpace=wrap;html=1;" vertex="1" parent="1">
          <mxGeometry x="150" y="890" width="120" height="60" as="geometry" />
        </mxCell>
        <mxCell id="aYal6dCSXNKZ7LH5C-j5-31" value="A howler instance is required to dispatch&lt;div&gt;action&lt;/div&gt;&lt;div&gt;i.e.&lt;/div&gt;&lt;div&gt;(All actions that need&lt;/div&gt;&lt;div&gt;to be dispatched need the action taker as an attribute)&lt;/div&gt;" style="whiteSpace=wrap;html=1;rounded=1;" vertex="1" parent="1">
          <mxGeometry x="350" y="890" width="120" height="260" as="geometry" />
        </mxCell>
        <mxCell id="aYal6dCSXNKZ7LH5C-j5-35" value="" style="edgeStyle=orthogonalEdgeStyle;rounded=0;orthogonalLoop=1;jettySize=auto;html=1;" edge="1" parent="1" source="aYal6dCSXNKZ7LH5C-j5-33" target="aYal6dCSXNKZ7LH5C-j5-34">
          <mxGeometry relative="1" as="geometry" />
        </mxCell>
        <mxCell id="aYal6dCSXNKZ7LH5C-j5-37" value="" style="edgeStyle=orthogonalEdgeStyle;rounded=0;orthogonalLoop=1;jettySize=auto;html=1;" edge="1" parent="1" source="aYal6dCSXNKZ7LH5C-j5-33" target="aYal6dCSXNKZ7LH5C-j5-36">
          <mxGeometry relative="1" as="geometry" />
        </mxCell>
        <mxCell id="aYal6dCSXNKZ7LH5C-j5-39" value="" style="edgeStyle=orthogonalEdgeStyle;rounded=0;orthogonalLoop=1;jettySize=auto;html=1;" edge="1" parent="1" source="aYal6dCSXNKZ7LH5C-j5-33" target="aYal6dCSXNKZ7LH5C-j5-38">
          <mxGeometry relative="1" as="geometry" />
        </mxCell>
        <mxCell id="aYal6dCSXNKZ7LH5C-j5-33" value="AudioStates" style="rounded=0;whiteSpace=wrap;html=1;" vertex="1" parent="1">
          <mxGeometry x="620" y="960" width="120" height="60" as="geometry" />
        </mxCell>
        <mxCell id="aYal6dCSXNKZ7LH5C-j5-34" value="AudioEventAction" style="whiteSpace=wrap;html=1;rounded=0;" vertex="1" parent="1">
          <mxGeometry x="620" y="820" width="120" height="60" as="geometry" />
        </mxCell>
        <mxCell id="aYal6dCSXNKZ7LH5C-j5-36" value="AudioLoadingAction" style="whiteSpace=wrap;html=1;rounded=0;" vertex="1" parent="1">
          <mxGeometry x="620" y="1100" width="120" height="60" as="geometry" />
        </mxCell>
        <mxCell id="aYal6dCSXNKZ7LH5C-j5-38" value="AudioErrorAction" style="whiteSpace=wrap;html=1;rounded=0;" vertex="1" parent="1">
          <mxGeometry x="820" y="960" width="120" height="60" as="geometry" />
        </mxCell>
        <mxCell id="aYal6dCSXNKZ7LH5C-j5-42" value="" style="edgeStyle=orthogonalEdgeStyle;rounded=0;orthogonalLoop=1;jettySize=auto;html=1;" edge="1" parent="1" source="aYal6dCSXNKZ7LH5C-j5-40" target="aYal6dCSXNKZ7LH5C-j5-41">
          <mxGeometry relative="1" as="geometry" />
        </mxCell>
        <mxCell id="aYal6dCSXNKZ7LH5C-j5-44" value="" style="edgeStyle=orthogonalEdgeStyle;rounded=0;orthogonalLoop=1;jettySize=auto;html=1;" edge="1" parent="1" source="aYal6dCSXNKZ7LH5C-j5-40" target="aYal6dCSXNKZ7LH5C-j5-43">
          <mxGeometry relative="1" as="geometry" />
        </mxCell>
        <mxCell id="aYal6dCSXNKZ7LH5C-j5-40" value="AudioLoadOptions" style="rounded=0;whiteSpace=wrap;html=1;" vertex="1" parent="1">
          <mxGeometry x="640" y="290" width="120" height="60" as="geometry" />
        </mxCell>
        <mxCell id="aYal6dCSXNKZ7LH5C-j5-41" value="AudioEventListeners" style="whiteSpace=wrap;html=1;rounded=0;" vertex="1" parent="1">
          <mxGeometry x="640" y="380" width="120" height="60" as="geometry" />
        </mxCell>
        <mxCell id="aYal6dCSXNKZ7LH5C-j5-43" value="AudioHandlerOptions" style="whiteSpace=wrap;html=1;rounded=0;" vertex="1" parent="1">
          <mxGeometry x="640" y="210" width="120" height="60" as="geometry" />
        </mxCell>
      </root>
    </mxGraphModel>
  </diagram>
</mxfile>
